<?xml version="1.0" encoding="UTF-8" standalone="no"?>
<!-- Generator: Adobe Illustrator 15.0.2, SVG Export Plug-In  -->

<svg
   xmlns:dc="http://purl.org/dc/elements/1.1/"
   xmlns:cc="http://creativecommons.org/ns#"
   xmlns:rdf="http://www.w3.org/1999/02/22-rdf-syntax-ns#"
   xmlns:svg="http://www.w3.org/2000/svg"
   xmlns="http://www.w3.org/2000/svg"
   xmlns:sodipodi="http://sodipodi.sourceforge.net/DTD/sodipodi-0.dtd"
   xmlns:inkscape="http://www.inkscape.org/namespaces/inkscape"
   version="1.1"
   x="0px"
   y="0px"
   width="356.22501"
   height="76.5"
   viewBox="-242.8 -260.2 356.22501 76.5"
   style="overflow:visible"
   xml:space="preserve"
   id="svg2"
   inkscape:version="0.48.4 r9939"
   sodipodi:docname="kitconcept_logo_blau_RGB.svg"><metadata
     id="metadata32"><rdf:RDF><cc:Work
         rdf:about=""><dc:format>image/svg+xml</dc:format><dc:type
           rdf:resource="http://purl.org/dc/dcmitype/StillImage" /></cc:Work></rdf:RDF></metadata><sodipodi:namedview
     pagecolor="#ffffff"
     bordercolor="#666666"
     borderopacity="1"
     objecttolerance="10"
     gridtolerance="10"
     guidetolerance="10"
     inkscape:pageopacity="0"
     inkscape:pageshadow="2"
     inkscape:window-width="640"
     inkscape:window-height="480"
     id="namedview30"
     showgrid="false"
     fit-margin-top="0"
     fit-margin-left="0"
     fit-margin-right="0"
     fit-margin-bottom="0"
     inkscape:zoom="0.38123515"
     inkscape:cx="178.225"
     inkscape:cy="39.2"
     inkscape:window-x="65"
     inkscape:window-y="34"
     inkscape:window-maximized="0"
     inkscape:current-layer="svg2" /><style
     type="text/css"
     id="style4">
	.st0{fill:#FFFFFF;}
</style><defs
     id="defs6" /><path
     class="st0"
     d="m -141.675,-240.7 h 4 v 26.4 l 14.6,-15.2 h 5 l -11.4,11.6 11.7,15.5 h -4.8 l -9.7,-12.6 -5.5,5.6 v 7.1 h -4 v -38.4 z"
     id="path8"
     inkscape:connector-curvature="0"
     style="fill:#FFFFFF" /><path
     class="st0"
     d="m -113.175,-239.9 h 4.6 v 4.5 h -4.6 v -4.5 z m 0.2,10.4 h 4 v 27.1 h -4 v -27.1 z"
     id="path10"
     inkscape:connector-curvature="0"
     style="fill:#FFFFFF" /><path
     class="st0"
     d="M -100.075,-209.6 V -226 h -3.8 v -3.6 h 3.8 v -8.2 h 4 v 8.2 h 8.6 v 3.6 h -8.6 v 15.8 c 0,3.3 1.8,4.5 4.6,4.5 1.4,0 2.5,-0.3 3.9,-0.9 v 3.5 c -1.4,0.7 -2.9,1.2 -4.9,1.2 -4.3,-0.1 -7.6,-2.2 -7.6,-7.7 z"
     id="path12"
     inkscape:connector-curvature="0"
     style="fill:#FFFFFF" /><path
     class="st0"
     d="m -84.775,-215.9 v -0.1 c 0,-7.6 6,-14.1 13.9,-14.1 5.1,0 8.3,2.1 10.8,4.8 l -2.7,2.8 c -2.1,-2.3 -4.6,-4.1 -8.2,-4.1 -5.5,0 -9.7,4.7 -9.7,10.5 v 0.1 c 0,5.9 4.3,10.5 10,10.5 3.5,0 6.1,-1.7 8.3,-4 l 2.6,2.4 c -2.7,3 -6,5.2 -11.1,5.2 -8,0.1 -13.9,-6.4 -13.9,-14 z"
     id="path14"
     inkscape:connector-curvature="0"
     style="fill:#FFFFFF" /><path
     class="st0"
     d="m -56.875,-215.9 v -0.1 c 0,-7.6 6,-14.1 14.1,-14.1 8.1,0 14.1,6.4 14.1,14 v 0.1 c 0,7.7 -6,14.1 -14.2,14.1 -8.1,0.1 -14,-6.3 -14,-14 z m 24.1,0 v -0.1 c 0,-5.8 -4.3,-10.6 -10.1,-10.6 -5.9,0 -9.9,4.8 -9.9,10.5 v 0.1 c 0,5.8 4.3,10.5 10,10.5 5.9,0.1 10,-4.7 10,-10.4 z"
     id="path16"
     inkscape:connector-curvature="0"
     style="fill:#FFFFFF" /><path
     class="st0"
     d="m -22.575,-229.5 h 4 v 4.7 c 1.8,-2.9 4.6,-5.3 9.3,-5.3 6.5,0 10.4,4.4 10.4,10.8 v 16.8 h -4 v -15.8 c 0,-5 -2.7,-8.2 -7.5,-8.2 -4.7,0 -8.1,3.4 -8.1,8.5 v 15.5 h -4 v -27 z"
     id="path18"
     inkscape:connector-curvature="0"
     style="fill:#FFFFFF" /><path
     class="st0"
     d="m 6.925,-215.9 v -0.1 c 0,-7.6 6,-14.1 13.9,-14.1 5.1,0 8.3,2.1 10.8,4.8 l -2.7,2.8 c -2.1,-2.3 -4.6,-4.1 -8.2,-4.1 -5.5,0 -9.7,4.7 -9.7,10.5 v 0.1 c 0,5.9 4.3,10.5 10,10.5 3.5,0 6.1,-1.7 8.3,-4 l 2.6,2.4 c -2.7,3 -6,5.2 -11.1,5.2 -7.9,0.1 -13.9,-6.4 -13.9,-14 z"
     id="path20"
     inkscape:connector-curvature="0"
     style="fill:#FFFFFF" /><path
     class="st0"
     d="m 48.525,-205.3 c 3.7,0 6.3,-1.5 8.5,-3.8 l 2.5,2.3 c -2.7,3 -6,5.1 -11.2,5.1 -7.4,0 -13.5,-5.7 -13.5,-14.1 0,-7.9 5.5,-14.1 13,-14.1 8,0 12.6,6.4 12.6,14.4 0,0.4 0,0.8 -0.1,1.4 h -21.5 c 0.7,5.5 4.9,8.8 9.7,8.8 z m 7.9,-12.3 c -0.5,-4.9 -3.3,-9.1 -8.6,-9.1 -4.7,0 -8.2,3.9 -8.8,9.1 h 17.4 z"
     id="path22"
     inkscape:connector-curvature="0"
     style="fill:#FFFFFF" /><path
     class="st0"
     d="m 66.625,-229.5 h 4 v 5.4 c 2.2,-3.2 5.4,-6 10.4,-6 6.5,0 12.9,5.1 12.9,14 v 0.1 c 0,8.9 -6.4,14.1 -12.9,14.1 -5,0 -8.3,-2.7 -10.4,-5.8 v 13.6 h -4 v -35.4 z m 23.2,13.6 v -0.1 c 0,-6.4 -4.4,-10.5 -9.5,-10.5 -5,0 -9.8,4.2 -9.8,10.4 v 0.1 c 0,6.3 4.8,10.5 9.8,10.5 5.2,0 9.5,-3.9 9.5,-10.4 z"
     id="path24"
     inkscape:connector-curvature="0"
     style="fill:#FFFFFF" /><path
     class="st0"
     d="M 100.825,-209.6 V -226 h -3.8 v -3.6 h 3.8 v -8.2 h 4 v 8.2 h 8.6 v 3.6 h -8.6 v 15.8 c 0,3.3 1.8,4.5 4.6,4.5 1.4,0 2.5,-0.3 3.9,-0.9 v 3.5 c -1.4,0.7 -2.9,1.2 -4.9,1.2 -4.3,-0.1 -7.6,-2.2 -7.6,-7.7 z"
     id="path26"
     inkscape:connector-curvature="0"
     style="fill:#FFFFFF" /><path
     class="st0"
     d="m -156.675,-224.9 -18.7,-32.3 c -1.1,-1.9 -3.1,-3 -5.2,-3 h -37.5 c -2.1,0 -4.1,1.1 -5.2,2.9 l -18.7,32.4 c -1.1,1.9 -1.1,4.1 0,6 l 18.7,32.3 c 1.1,1.9 3.1,2.9 5.2,2.9 h 37.4 c 2.1,0 4.1,-1 5.2,-2.9 l 18.7,-32.3 c 1.2,-1.9 1.2,-4.1 0.1,-6 m -54.8,-15.8 h 4.5 v 14.6 l -4.5,8.5 v -23.1 z m -5.6,38.2 21.6,-38.2 h 5.4 l -21.6,38.2 h -5.4 z m 30,0 -6.6,-11.8 2.7,-4.8 9.3,16.6 h -5.4 z m -16.2,0 h -5.4 l 21.6,-38.2 h 5.4 l -21.6,38.2 z"
     id="path28"
     inkscape:connector-curvature="0"
     style="fill:#FFFFFF" /></svg>